<?xml version="1.0" standalone="no"?>
<!DOCTYPE svg PUBLIC "-//W3C//DTD SVG 20010904//EN"
 "http://www.w3.org/TR/2001/REC-SVG-20010904/DTD/svg10.dtd">
<svg version="1.0" xmlns="http://www.w3.org/2000/svg"
 width="438.000000pt" height="410.000000pt" viewBox="0 0 438.000000 410.000000"
 preserveAspectRatio="xMidYMid meet">

<g transform="translate(0.000000,410.000000) scale(0.100000,-0.100000)"
fill="#000000" stroke="none">
<path d="M1963 3630 c-62 -13 -121 -46 -138 -80 -15 -29 -21 -120 -8 -120 3 0
34 11 67 24 84 34 201 56 288 55 l73 0 -68 -23 c-66 -22 -117 -52 -124 -72 -2
-6 37 -16 89 -23 201 -26 376 -70 486 -122 68 -33 79 -49 32 -49 -37 0 -129
-19 -154 -32 -16 -9 -10 -15 47 -53 83 -56 152 -135 178 -205 43 -113 12 -253
-82 -380 l-34 -45 -6 65 c-4 36 -17 88 -30 115 -25 53 -95 129 -145 157 l-30
17 25 -51 c45 -92 28 -207 -45 -303 l-26 -35 325 0 326 0 11 41 c6 22 11 78
11 122 1 113 -22 205 -85 350 l-17 39 32 -19 c43 -25 97 -89 122 -143 l20 -45
19 43 c28 62 26 159 -3 220 -62 127 -246 238 -519 314 l-85 23 109 5 109 5
-55 37 c-122 80 -267 139 -405 163 -91 16 -241 18 -310 5z"/>
<path d="M1086 3015 c-12 -32 -6 -57 28 -118 19 -34 37 -77 41 -94 9 -45 21
-41 28 8 7 55 47 102 125 149 34 21 57 40 50 43 -7 2 -61 2 -121 -1 -91 -4
-110 -2 -126 12 -17 15 -19 16 -25 1z"/>
<path d="M2085 2884 c41 -98 43 -121 14 -182 -33 -67 -141 -129 -280 -161
l-36 -8 -12 52 c-15 66 -61 139 -100 159 l-30 16 15 -42 c20 -56 22 -151 5
-211 -8 -26 -31 -67 -53 -92 l-40 -45 221 0 220 0 85 83 c107 104 140 167 140
274 1 57 -3 77 -20 99 -29 39 -63 63 -103 70 -31 7 -34 5 -26 -12z"/>
<path d="M1108 2419 l-17 -50 27 3 c25 3 27 6 24 43 -5 60 -16 61 -34 4z"/>
<path d="M2280 895 c-15 -18 -6 -45 13 -45 20 0 40 27 33 45 -7 19 -30 19 -46
0z"/>
<path d="M3226 894 c-9 -25 -7 -124 3 -124 8 0 51 111 51 132 0 15 -48 8 -54
-8z"/>
<path d="M2178 889 c-11 -6 -18 -22 -18 -39 0 -26 -4 -30 -29 -30 -92 0 -170
-85 -171 -187 0 -33 5 -46 26 -62 36 -29 57 -26 100 11 35 31 36 31 32 7 -2
-18 2 -25 19 -27 24 -4 20 -17 54 186 23 135 21 160 -13 141z m-32 -116 c-2
-10 -10 -43 -16 -75 -12 -61 -46 -108 -79 -108 -54 0 -52 114 4 174 30 32 100
39 91 9z"/>
<path d="M3128 889 c-11 -6 -18 -22 -18 -39 0 -26 -4 -30 -29 -30 -92 0 -170
-85 -171 -187 0 -33 5 -46 26 -62 36 -29 57 -26 100 11 35 31 36 31 32 7 -2
-18 2 -25 19 -27 24 -4 20 -17 54 186 23 135 21 160 -13 141z m-32 -116 c-2
-10 -10 -43 -16 -75 -12 -61 -46 -108 -79 -108 -54 0 -52 114 4 174 30 32 100
39 91 9z"/>
<path d="M3415 881 c-77 -35 -125 -113 -125 -204 0 -113 123 -164 229 -94 43
29 86 105 97 173 17 112 -87 177 -201 125z m124 -37 c24 -30 26 -60 10 -136
-23 -104 -124 -164 -179 -106 -45 48 -16 198 47 248 38 30 96 27 122 -6z"/>
<path d="M656 878 c-14 -50 -55 -311 -51 -319 10 -16 161 -11 175 6 14 17 14
17 -62 15 -44 -1 -58 2 -58 13 0 8 11 74 25 148 14 74 25 137 25 142 0 12 -50
8 -54 -5z"/>
<path d="M1474 879 c-3 -6 -17 -65 -30 -131 -25 -127 -39 -155 -83 -160 -34
-4 -35 -32 0 -36 36 -4 75 13 94 42 18 27 68 263 60 283 -5 16 -31 17 -41 2z"/>
<path d="M915 802 c-47 -22 -70 -53 -87 -115 -10 -38 -9 -49 8 -83 14 -28 28
-41 51 -48 39 -11 99 0 107 19 4 12 -3 13 -41 8 -51 -7 -73 9 -73 54 0 19 5
23 30 23 64 0 140 54 140 99 0 52 -69 74 -135 43z m80 -32 c8 -27 -8 -54 -49
-79 -41 -25 -71 -28 -62 -5 3 9 6 22 6 29 0 7 12 27 26 44 30 36 69 41 79 11z"/>
<path d="M1101 795 c-24 -21 -31 -35 -31 -61 0 -30 6 -38 45 -62 53 -32 59
-42 38 -72 -14 -20 -22 -22 -64 -17 -39 5 -49 3 -49 -8 0 -19 41 -29 87 -22
49 8 83 42 83 83 0 29 -6 37 -45 60 -71 41 -57 99 22 92 29 -2 38 1 38 12 0
11 -13 16 -46 18 -38 2 -52 -2 -78 -23z"/>
<path d="M1634 806 c-55 -25 -104 -110 -104 -180 0 -37 7 -49 37 -65 35 -18
53 -13 89 23 36 36 37 35 34 -2 -1 -19 3 -23 21 -20 21 3 25 13 45 118 11 63
18 118 15 122 -13 15 -106 18 -137 4z m78 -71 c-3 -66 -36 -133 -69 -142 -57
-14 -79 43 -48 124 20 51 49 75 90 71 29 -3 30 -4 27 -53z"/>
<path d="M1855 810 c-27 -10 -70 -227 -49 -250 22 -23 37 2 50 81 14 82 33
114 79 136 35 17 48 43 21 43 -8 0 -29 -12 -47 -27 -31 -27 -32 -27 -27 -5 7
26 0 32 -27 22z"/>
<path d="M2480 813 c-8 -3 -26 -15 -38 -27 -23 -20 -24 -21 -20 -1 2 15 -3 20
-21 20 -24 0 -26 -5 -44 -119 -11 -71 -15 -122 -9 -128 12 -12 42 1 42 20 0
55 25 146 47 173 27 32 79 41 89 14 4 -8 -1 -56 -11 -106 -17 -92 -13 -115 17
-104 14 6 49 165 48 223 0 32 -55 51 -100 35z"/>
<path d="M2670 807 c-33 -16 -55 -57 -47 -88 4 -14 25 -35 52 -51 50 -30 55
-46 25 -73 -15 -13 -30 -16 -60 -12 -42 5 -63 -8 -39 -25 18 -12 101 -3 128
14 26 16 44 65 32 86 -5 8 -26 27 -47 42 -66 44 -54 94 20 88 32 -2 42 1 44
15 3 14 -4 17 -40 17 -24 0 -54 -6 -68 -13z"/>
<path d="M3695 810 c-16 -6 -23 -26 -38 -111 -10 -57 -21 -111 -23 -120 -6
-20 25 -34 40 -19 6 6 16 42 22 81 14 82 33 114 79 136 35 17 48 43 21 43 -8
0 -28 -11 -45 -25 l-30 -26 -3 24 c-2 20 -7 23 -23 17z"/>
<path d="M2255 753 c-4 -32 -13 -86 -20 -120 -11 -53 -10 -64 2 -74 24 -21 39
9 57 116 21 131 21 135 -8 135 -21 0 -24 -6 -31 -57z"/>
</g>
</svg>
