<?xml version="1.0" standalone="no"?>
<!DOCTYPE svg PUBLIC "-//W3C//DTD SVG 20010904//EN"
 "http://www.w3.org/TR/2001/REC-SVG-20010904/DTD/svg10.dtd">
<svg version="1.0" xmlns="http://www.w3.org/2000/svg"
 width="227.000000pt" height="186.000000pt" viewBox="0 0 227.000000 186.000000"
 preserveAspectRatio="xMidYMid meet">

<g transform="translate(0.000000,186.000000) scale(0.100000,-0.100000)"
fill="#000000" stroke="none">
<path d="M1822 1657 c-16 -19 -28 -222 -14 -213 7 4 12 2 12 -3 0 -6 -4 -11
-9 -11 -5 0 -11 -18 -13 -40 -3 -37 -1 -40 20 -40 23 0 24 -2 18 -52 -4 -29
-7 -92 -7 -140 -1 -84 -10 -116 -23 -82 -4 9 -7 55 -8 103 0 74 -2 81 -10 51
-7 -23 -7 -65 1 -127 14 -120 17 -125 54 -121 l31 3 2 220 c1 121 5 271 9 334
6 91 5 115 -6 122 -20 13 -45 11 -57 -4z m18 -256 c0 -17 -12 -41 -21 -41 -7
0 -7 24 0 48 2 7 21 1 21 -7z"/>
<path d="M435 1652 c-6 -4 -11 -74 -13 -161 -3 -148 -3 -154 15 -140 17 13 17
13 1 -7 -14 -16 -18 -40 -19 -110 l0 -89 -54 110 c-30 61 -64 139 -75 175 -28
88 -44 110 -80 110 -31 0 -45 -13 -34 -31 3 -6 8 -97 9 -202 4 -220 20 -330
49 -335 15 -3 18 1 14 22 -3 14 -2 23 2 21 14 -9 17 44 8 151 -5 59 -7 114 -5
123 2 9 16 -8 34 -44 18 -33 50 -85 73 -115 22 -30 54 -76 72 -102 17 -27 37
-48 43 -48 20 0 26 56 10 87 -8 15 -15 40 -15 56 0 15 -4 27 -10 27 -16 0 -11
29 10 58 19 25 21 48 27 219 5 185 5 191 -16 212 -23 23 -30 25 -46 13z m23
-187 c-2 -19 1 -36 6 -38 7 -2 6 -13 -2 -32 -7 -16 -17 -24 -21 -19 -12 12 -1
124 11 124 6 0 8 -16 6 -35z m2 -155 c0 -5 -2 -10 -4 -10 -3 0 -8 5 -11 10 -3
6 -1 10 4 10 6 0 11 -4 11 -10z m0 -77 c0 -18 -4 -33 -10 -33 -5 0 -8 14 -6
30 2 17 -1 33 -5 36 -5 3 -6 10 -3 16 10 16 24 -12 24 -49z m-230 43 c0 -2 -7
-6 -15 -10 -8 -3 -15 -1 -15 4 0 6 7 10 15 10 8 0 15 -2 15 -4z m0 -77 c0 -5
-7 -9 -15 -9 -9 0 -12 6 -9 15 6 15 24 11 24 -6z"/>
<path d="M885 1608 c-2 -7 -11 -69 -19 -137 -13 -109 -17 -127 -38 -143 l-23
-18 24 0 c23 0 23 0 15 -82 -12 -108 -8 -212 8 -246 16 -32 61 -51 85 -36 25
16 26 28 2 55 -20 23 -21 31 -14 164 6 131 8 141 31 162 29 27 30 33 3 33 -19
0 -20 4 -15 53 16 159 17 174 4 184 -24 19 -58 25 -63 11z m2 -170 c-3 -8 -6
-5 -6 6 -1 11 2 17 5 13 3 -3 4 -12 1 -19z m6 -80 c-10 -19 -23 -5 -19 20 6
39 7 40 15 12 5 -14 6 -28 4 -32z m7 -81 c0 -19 -3 -36 -6 -39 -5 -6 -17 -141
-15 -191 0 -18 -4 -27 -12 -24 -9 3 -11 39 -10 133 3 142 5 154 28 154 10 0
15 -10 15 -33z"/>
<path d="M1351 1401 c-20 -20 -21 -32 -21 -182 l0 -160 35 -15 c47 -19 59 -11
50 35 -12 61 -17 114 -17 169 1 61 11 77 79 120 39 25 54 42 36 42 -5 0 -26
-11 -48 -25 -46 -28 -55 -30 -55 -12 0 8 -9 22 -19 31 -18 17 -20 17 -40 -3z"/>
<path d="M1204 1396 c-21 -15 -54 -83 -75 -156 -16 -54 -38 -92 -50 -84 -11 6
1 131 17 185 5 19 -20 49 -41 49 -22 0 -42 -47 -54 -127 -17 -111 -15 -150 10
-164 30 -15 86 -2 116 27 13 13 26 24 28 24 3 0 5 -21 5 -47 0 -58 7 -69 43
-78 40 -10 72 1 85 30 11 24 0 36 -13 15 -3 -5 -11 -10 -17 -10 -13 0 -4 169
14 267 10 54 9 66 -3 74 -20 13 -42 11 -65 -5z m17 -198 c-2 -98 -10 -153 -21
-141 -13 13 -14 53 -5 113 5 30 7 65 6 77 -3 24 7 48 16 39 4 -3 5 -43 4 -88z"/>
<path d="M605 1373 c-33 -36 -49 -92 -49 -175 0 -75 13 -98 55 -98 28 0 49 15
76 56 20 32 29 24 35 -31 6 -53 31 -85 66 -85 20 0 23 4 18 23 -12 43 -27 205
-24 258 3 54 3 54 -27 54 -16 0 -40 6 -52 13 -35 20 -70 14 -98 -15z m85 -23
c17 -20 17 -23 0 -78 -22 -69 -51 -123 -65 -119 -25 8 -11 147 21 194 18 28
22 28 44 3z m60 -206 c0 -13 -4 -24 -10 -24 -5 0 -10 14 -10 31 0 17 4 28 10
24 6 -3 10 -17 10 -31z"/>
<path d="M1547 1370 c-15 -17 -32 -59 -43 -103 -15 -65 -15 -79 -3 -118 13
-41 17 -44 51 -47 33 -3 40 1 67 39 32 43 34 42 45 -20 9 -49 32 -81 60 -81
31 0 37 9 24 34 -7 11 -14 84 -17 161 l-6 140 -33 1 c-18 1 -38 6 -44 13 -23
22 -75 13 -101 -19z m84 -19 c21 -19 21 -20 4 -73 -22 -67 -53 -128 -64 -128
-26 0 -16 132 15 192 17 33 19 34 45 9z m58 -213 c0 -35 -2 -39 -9 -21 -8 19
-3 63 6 63 2 0 4 -19 3 -42z"/>
<path d="M282 870 c-67 -10 -112 -29 -112 -46 0 -16 55 -14 158 5 34 7 67 9
72 6 6 -4 2 -21 -9 -43 -28 -56 -51 -183 -51 -286 0 -97 27 -325 41 -340 12
-13 39 12 39 36 0 10 7 33 16 50 13 26 14 35 3 54 -22 42 2 40 40 -2 50 -57
219 -154 267 -154 22 0 6 20 -30 36 -73 34 -140 83 -167 124 -37 55 -36 72 4
105 115 97 149 136 150 170 1 22 6 35 14 35 34 0 -8 106 -66 165 -27 28 -63
50 -99 64 -65 23 -192 33 -270 21z m256 -54 c31 -17 94 -81 111 -113 17 -34
13 -92 -10 -140 -15 -31 -43 -60 -101 -103 -75 -56 -107 -71 -79 -36 10 12 9
14 -8 9 -20 -5 -21 -1 -21 68 0 75 16 181 31 211 5 10 9 40 9 68 0 44 3 50 20
50 12 0 33 -6 48 -14z m-128 -150 c0 -2 -7 -7 -16 -10 -8 -3 -12 -2 -9 4 6 10
25 14 25 6z m-27 -133 c-5 -12 -7 -12 -14 -1 -13 20 -11 28 5 22 8 -3 12 -12
9 -21z m1 -74 c-10 -16 -24 -9 -24 12 0 18 2 19 15 9 8 -7 12 -16 9 -21z"/>
<path d="M998 669 c-10 -5 -22 -28 -28 -50 -11 -39 -9 -45 24 -99 20 -32 48
-71 64 -88 15 -16 34 -49 42 -72 16 -48 9 -66 -34 -90 -26 -14 -28 -14 -48 10
-20 25 -21 71 -3 140 6 20 3 18 -16 -10 -14 -22 -24 -56 -27 -90 -5 -71 9 -85
87 -85 61 1 92 16 121 61 17 25 17 28 -2 73 -12 25 -34 63 -50 84 l-30 37 24
20 c28 23 117 45 131 31 5 -5 4 -18 -4 -32 -17 -30 -17 -166 0 -196 15 -29 61
-53 100 -53 32 0 59 26 81 80 16 39 30 38 30 -2 0 -43 10 -56 49 -68 40 -11
45 0 33 61 -11 48 -11 49 -13 141 -1 60 1 64 36 96 20 19 40 30 44 26 4 -5 13
-52 20 -104 31 -242 30 -238 68 -251 18 -6 40 -9 47 -6 8 3 21 32 31 64 9 32
28 94 42 138 13 44 26 93 28 108 7 57 17 86 31 98 19 15 18 39 -1 39 -17 0
-46 -60 -96 -202 -19 -54 -37 -98 -41 -98 -10 0 -16 25 -33 140 -15 101 -32
140 -61 140 -7 0 -19 -8 -26 -19 -7 -10 -27 -25 -44 -34 -30 -15 -30 -15 -42
15 -7 20 -16 29 -29 26 -30 -6 -43 -48 -43 -149 l0 -96 -47 -56 c-67 -78 -94
-75 -107 11 -6 40 -4 47 27 82 27 29 36 49 42 95 5 46 4 61 -9 74 -15 14 -20
14 -64 -11 -26 -14 -67 -31 -92 -38 -25 -6 -63 -22 -86 -35 -45 -27 -54 -24
-78 23 -16 30 -17 94 -3 108 2 3 26 0 52 -6 49 -11 74 -3 61 19 -9 14 -135 14
-158 0z m347 -138 c-6 -30 -21 -48 -31 -38 -3 3 0 24 7 46 14 48 35 41 24 -8z"/>
<path d="M813 599 c-52 -33 -81 -158 -60 -261 13 -64 111 -103 150 -60 9 10
28 40 42 67 l26 50 -57 -58 c-55 -56 -58 -57 -74 -40 -10 10 -20 39 -23 64 -6
42 -3 49 23 74 58 55 69 186 16 185 -6 0 -25 -10 -43 -21z m38 -82 c-6 -15
-15 -27 -21 -27 -14 0 -13 12 7 56 14 31 18 35 20 18 2 -11 -1 -32 -6 -47z"/>
<path d="M1953 595 c-43 -34 -67 -116 -60 -208 5 -81 29 -114 90 -124 46 -7
69 11 103 82 l25 50 -53 -58 c-48 -53 -55 -57 -72 -44 -13 9 -20 30 -24 65 -4
47 -2 55 23 80 34 33 44 60 46 116 3 72 -21 85 -78 41z m57 -22 c0 -24 -23
-83 -32 -83 -10 0 -3 63 8 82 7 10 24 10 24 1z"/>
</g>
</svg>
